<svg width="96" height="96" viewBox="0 0 96 96" fill="none" xmlns="http://www.w3.org/2000/svg">
<path d="M64 30V86H20C15.6016 86 12 82.3984 12 78V30H64Z" fill="#44475A"/>
<path d="M28 10V78C28 82.3984 24.3984 86 20 86H78C82.3984 86 86 82.3984 86 78V10H28Z" fill="#9CA3BF"/>
<path d="M40 20H76V28H40V20Z" fill="#44475A"/>
<path d="M40 34H56V38H40V34Z" fill="#44475A"/>
<path d="M60 34H76V38H60V34Z" fill="#44475A"/>
<path d="M40 42H56V46H40V42Z" fill="#44475A"/>
<path d="M60 42H76V46H60V42Z" fill="#44475A"/>
<path d="M40 50H56V54H40V50Z" fill="#44475A"/>
<path d="M60 50H76V54H60V50Z" fill="#44475A"/>
<path d="M40 58H56V62H40V58Z" fill="#44475A"/>
<path d="M60 58H76V62H60V58Z" fill="#44475A"/>
<path d="M40 66H56V70H40V66Z" fill="#44475A"/>
<path d="M60 66H76V70H60V66Z" fill="#44475A"/>
<path d="M40 74H56V78H40V74Z" fill="#44475A"/>
<path d="M60 74H76V78H60V74Z" fill="#44475A"/>
</svg>
